<svg xmlns="http://www.w3.org/2000/svg" width="300" height="133" viewBox="0 0 300 133" version="1.1" >
	<path d="M 151.481 25.022 C 148.613 28.018, 148.500 28.485, 148.511 37.318 C 148.521 46.426, 148.568 46.598, 154.306 58.659 C 157.488 65.346, 160.458 73.135, 160.906 75.968 C 161.888 82.181, 160.669 89.593, 158.106 93 C 156.508 95.123, 155.542 95.456, 151.697 95.209 C 146.658 94.885, 145.177 96.034, 147.562 98.419 C 148.569 99.426, 150.905 100, 153.995 100 C 158.008 100, 159.344 99.502, 161.730 97.116 C 167.193 91.653, 168.758 79.879, 165.387 69.592 C 164.470 66.791, 161.969 60.995, 159.829 56.711 C 155.235 47.513, 152.567 37.915, 153.420 33.651 C 153.756 31.971, 154.986 29.579, 156.153 28.337 C 157.862 26.517, 158.660 26.283, 160.245 27.131 C 161.648 27.882, 162.537 27.863, 163.335 27.065 C 165.306 25.094, 162.692 22.530, 158.380 22.204 C 155.097 21.956, 153.980 22.412, 151.481 25.022 M 20.684 31.703 C 19.903 32.965, 17.874 96.987, 18.578 98.127 C 19.348 99.372, 22.754 99.208, 23.570 97.887 C 23.948 97.274, 24.177 89.849, 24.078 81.387 L 23.899 66 27.449 66 C 30.333 66, 31 65.624, 31 64 C 31 62.444, 30.333 62, 28 62 L 25 62 25 55.147 C 25 51.377, 25.293 45.487, 25.652 42.056 L 26.304 35.818 30.402 36.407 C 32.656 36.731, 35.175 36.563, 36 36.034 C 37.328 35.183, 37.322 34.894, 35.945 33.517 C 34.130 31.701, 21.605 30.212, 20.684 31.703 M 52.694 31.694 C 52.422 32.137, 51.893 35.200, 51.517 38.500 C 50.814 44.678, 47.792 61.846, 43.450 84.324 C 42.088 91.377, 41.231 97.565, 41.546 98.074 C 41.860 98.583, 43.003 99, 44.084 99 C 46.380 99, 47.636 96.222, 48.589 89.039 L 49.258 84 53.379 84.015 C 55.645 84.024, 57.994 84.361, 58.599 84.765 C 59.203 85.169, 60.001 88.148, 60.373 91.385 C 60.745 94.622, 61.290 97.660, 61.584 98.135 C 62.240 99.197, 65.719 99.281, 66.317 98.250 C 66.556 97.838, 66.098 92.550, 65.298 86.500 C 64.499 80.450, 62.848 65.600, 61.629 53.500 L 59.412 31.500 56.300 31.194 C 54.588 31.025, 52.965 31.250, 52.694 31.694 M 242.116 32.360 C 241.092 33.594, 240.945 38.670, 241.429 56.214 C 241.766 68.471, 242.301 83.112, 242.618 88.750 C 243.173 98.648, 243.272 99, 245.519 99 L 247.845 99 247.401 81.750 C 246.894 62.114, 247.526 62.130, 251.433 81.849 C 254.584 97.755, 255.492 100, 258.777 100 C 260.833 100, 261.137 99.633, 260.641 97.750 C 260.316 96.513, 258.190 88.232, 255.917 79.348 L 251.784 63.196 254.497 56.415 C 258.076 47.469, 257.810 38.355, 253.854 34.399 C 250.663 31.208, 244.028 30.056, 242.116 32.360 M 75.642 51.250 C 75.284 61.838, 74.708 75.968, 74.362 82.651 C 73.586 97.661, 74.088 100.243, 77.704 99.813 L 80.338 99.500 80.103 86.456 C 79.884 74.352, 81.190 64, 82.935 64 C 83.319 64, 84.236 67.037, 84.973 70.750 C 86.685 79.373, 90.241 90.591, 92.937 95.876 C 94.548 99.034, 95.622 100, 97.520 100 C 100.628 100, 100.860 97.016, 98.056 93.079 C 95.420 89.377, 89.014 67.923, 88.315 60.456 C 87.701 53.900, 88.458 51.774, 95.681 39.761 C 99.330 33.692, 99.313 32, 95.601 32 C 93.705 32, 92.345 33.897, 87.533 43.250 C 84.349 49.438, 81.590 54.674, 81.402 54.887 C 81.213 55.100, 81.339 50.038, 81.682 43.637 L 82.306 32 79.299 32 L 76.292 32 75.642 51.250 M 107.791 33.619 C 107.557 34.654, 107.395 49.675, 107.432 67 L 107.500 98.500 115.500 98.500 C 121.944 98.500, 123.500 98.208, 123.500 97 C 123.500 96.061, 122.378 95.397, 120.500 95.226 C 112.426 94.488, 113 95.789, 112.999 78.231 L 112.999 62.500 116.749 62.500 C 119.833 62.500, 120.500 62.145, 120.500 60.500 C 120.500 58.911, 119.730 58.436, 116.750 58.190 L 113 57.879 113 47.447 L 113 37.015 117.713 37.258 C 121.384 37.446, 122.499 37.141, 122.762 35.876 C 123.178 33.866, 121.277 33.103, 113.942 32.336 C 108.883 31.807, 108.168 31.957, 107.791 33.619 M 172 32.800 C 172 34.625, 174.632 36, 178.128 36 L 181.856 36 182.415 41.250 C 182.722 44.138, 183.458 57.750, 184.049 71.500 C 184.641 85.250, 185.559 96.940, 186.090 97.478 C 186.718 98.114, 187.656 98.074, 188.778 97.363 C 190.796 96.082, 190.822 94.833, 189.555 59.750 L 188.697 36 193.849 36 C 198.333 36, 199 35.741, 199 34 C 199 32.099, 198.333 32, 185.500 32 C 178.075 32, 172 32.360, 172 32.800 M 210.187 33.275 C 204.272 40.402, 204.905 85.638, 211.059 95.596 C 213.300 99.222, 214.775 100, 219.407 100 C 226.834 100, 229.959 91.971, 230.729 70.911 C 231.313 54.917, 230.166 45.162, 226.900 38.339 C 224.661 33.662, 223.943 33.246, 216.631 32.386 C 212.669 31.921, 211.135 32.132, 210.187 33.275 M 270.670 32.725 C 270.217 33.457, 269.706 79.162, 269.959 96.292 L 270 99.084 277.739 98.792 C 284.177 98.549, 285.535 98.206, 285.812 96.750 C 286.091 95.291, 285.391 95, 281.609 95 C 278.145 95, 276.825 94.542, 276.035 93.066 C 275.458 91.988, 275 84.723, 275 76.661 L 275 62.190 279 62.727 C 282.789 63.235, 283 63.125, 283 60.632 C 283 58.228, 282.653 58, 279 58 L 275 58 275 47.081 L 275 36.161 278.591 37.153 C 280.566 37.698, 282.816 37.901, 283.591 37.603 C 285.102 37.024, 285.509 34.433, 284.215 33.633 C 282.494 32.569, 271.233 31.814, 270.670 32.725 M 215.045 36.951 C 213.162 38.142, 212.137 48.349, 212.077 66.500 C 212.027 81.878, 213.574 91.019, 216.769 94.213 C 218.737 96.182, 218.753 96.181, 220.702 94.089 C 221.778 92.934, 223.186 89.707, 223.830 86.918 C 225.120 81.325, 225.292 59.657, 224.138 48.120 C 223.504 41.786, 223.008 40.404, 220.644 38.370 C 217.584 35.738, 217.140 35.626, 215.045 36.951 M 247.032 47.750 C 247.060 58.136, 247.229 59.282, 248.488 57.618 C 251.860 53.166, 252.706 40.761, 249.872 37.345 C 247.513 34.504, 247.001 36.381, 247.032 47.750 M 52.690 64.174 C 51.200 72.053, 49.986 78.792, 49.991 79.149 C 49.996 79.506, 52.060 79.962, 54.578 80.163 L 59.156 80.527 58.614 76.513 C 58.316 74.306, 57.769 68.225, 57.399 63 C 57.028 57.775, 56.427 52.678, 56.062 51.674 C 55.664 50.577, 54.318 55.568, 52.690 64.174" stroke="none" fill="#ff6f61" fill-rule="evenodd"/>
</svg>